<svg id="visual" viewBox="0 0 900 600" width="900" height="600" xmlns="http://www.w3.org/2000/svg" xmlns:xlink="http://www.w3.org/1999/xlink" version="1.1"><g transform="translate(464.4609141896673 293.0905585149461)"><path d="M192.7 -231.6C231.2 -197.4 231 -119.1 246.6 -41.8C262.1 35.4 293.4 111.4 272.6 166.8C251.8 222.1 178.9 256.7 109.9 266.5C40.8 276.3 -24.4 261.2 -94.6 243C-164.8 224.8 -240 203.4 -277.6 153.1C-315.2 102.8 -315.2 23.6 -294.8 -45C-274.4 -113.6 -233.6 -171.7 -181.1 -203.5C-128.6 -235.2 -64.3 -240.6 6.4 -248.3C77.1 -255.9 154.3 -265.9 192.7 -231.6" fill="#000000"></path></g></svg>